<?xml version="1.0" encoding="UTF-8"?>
<svg id="Layer_1" data-name="Layer 1" xmlns="http://www.w3.org/2000/svg" viewBox="0 0 413.54 105.25">
  <defs>
    <style>
      .cls-1 {
        fill: #fc0400;
      }

      .cls-1, .cls-2, .cls-3 {
        stroke-width: 0px;
      }

      .cls-2 {
        fill: #f78c1d;
      }

      .cls-3 {
        fill: #000;
      }
    </style>
  </defs>
  <g>
    <g>
      <path class="cls-1" d="M45.49,13.07c5,7.31,5.31,16.12,4.96,21.15-.04.62-.16,1.22-.32,1.81.82-.13,1.65-.19,2.5-.19.66,0,1.32.04,1.96.12-.25-.74-.4-1.51-.44-2.3l-.02-.3v-3.77c.22-4.44,1.28-10.23,4.66-15.6.11-.18.23-.36.36-.52,1.11-1.46,1.75-3.29,1.71-5.28C60.75,3.73,57.11.1,52.66,0c-4.72-.11-8.59,3.69-8.59,8.39,0,1.73.53,3.35,1.43,4.68h-.02Z"/>
      <path class="cls-1" d="M34.22,54.8c.81.06,1.6.23,2.35.5-.19-1.01-.3-2.04-.3-3.11,0-.56.03-1.12.08-1.67-.85.33-1.76.54-2.69.59l-.3.02h-3.77c-4.44-.22-10.23-1.28-15.61-4.66-.18-.11-.36-.23-.52-.36-1.46-1.11-3.29-1.75-5.28-1.71C3.73,44.51.1,48.14,0,52.59c-.11,4.72,3.69,8.59,8.39,8.59,1.74,0,3.35-.53,4.68-1.43v.02c7.31-5,16.12-5.31,21.15-4.96Z"/>
      <path class="cls-1" d="M59.76,92.17c-5-7.31-5.31-16.12-4.96-21.15.07-.95.29-1.87.65-2.73-.92.16-1.86.25-2.83.25-.79,0-1.56-.06-2.32-.17.47,1,.74,2.08.8,3.2l.02.3v3.77c-.22,4.44-1.28,10.23-4.66,15.6-.11.18-.23.36-.36.52-1.11,1.46-1.75,3.29-1.71,5.28.11,4.45,3.74,8.07,8.19,8.18,4.72.11,8.59-3.69,8.59-8.39,0-1.73-.53-3.35-1.43-4.68h.02Z"/>
      <path class="cls-1" d="M96.86,44.07c-1.74,0-3.35.53-4.68,1.43v-.02c-7.31,5-16.12,5.31-21.15,4.96-.76-.05-1.49-.21-2.2-.45.1.72.15,1.45.15,2.2,0,.88-.07,1.74-.21,2.59.89-.36,1.84-.59,2.81-.64l.3-.02h3.77c4.44.22,10.23,1.28,15.61,4.66.18.11.36.23.52.36,1.46,1.11,3.29,1.75,5.28,1.71,4.45-.11,8.08-3.74,8.18-8.19.11-4.72-3.69-8.59-8.39-8.59Z"/>
    </g>
    <path class="cls-2" d="M89.79,77.7c-1.23-1.23-2.74-1.99-4.32-2.3h.01c-8.71-1.64-15.15-7.66-18.46-11.46-1.5-1.73-2.27-3.98-2.07-6.26.05-.61.15-1.27.32-1.98h0c.22-.91.33-1.84.36-2.77,0-.04,0-.08,0-.12,0-.15,0-.29,0-.44,0-1.27-.17-2.53-.54-3.76h.01c-.19-.82-.3-1.58-.34-2.26-.15-2.28.65-4.52,2.19-6.22l.2-.23,2.66-2.66c3.29-2.98,8.14-6.33,14.33-7.74.21-.05.42-.09.63-.12,1.82-.25,3.57-1.09,4.94-2.53,3.07-3.22,3.07-8.35,0-11.57-3.26-3.42-8.68-3.47-12-.14-1.23,1.23-1.99,2.74-2.3,4.32h-.01c-1.63,8.7-7.65,15.14-11.45,18.45-1.73,1.5-3.98,2.27-6.26,2.07-.61-.05-1.27-.15-1.98-.32-.91-.22-1.84-.33-2.77-.36-.04,0-.08,0-.12,0-.15,0-.29,0-.44,0-1.27,0-2.53.17-3.76.54h0c-.83.18-1.58.29-2.27.33-2.28.15-4.52-.65-6.22-2.19l-.23-.2-2.66-2.66c-2.98-3.29-6.33-8.14-7.74-14.33-.05-.21-.09-.42-.12-.63-.25-1.82-1.09-3.57-2.53-4.94-3.22-3.07-8.35-3.07-11.57,0-3.42,3.26-3.47,8.68-.14,12,1.23,1.23,2.74,1.99,4.32,2.3h-.01c8.71,1.64,15.15,7.66,18.46,11.46,1.5,1.73,2.27,3.98,2.07,6.26-.05.61-.15,1.27-.32,1.98h0c-.22.91-.33,1.84-.36,2.77,0,.04,0,.08,0,.12,0,.15,0,.29,0,.44,0,1.27.17,2.53.54,3.76h-.01c.19.82.3,1.58.34,2.26.15,2.28-.65,4.52-2.19,6.22l-.2.23-2.66,2.66c-3.29,2.98-8.14,6.33-14.33,7.74-.21.05-.42.09-.63.12-1.82.25-3.57,1.09-4.94,2.53-3.07,3.22-3.07,8.35,0,11.57,3.26,3.42,8.68,3.47,12,.14,1.23-1.23,1.99-2.74,2.3-4.32h.01c1.63-8.7,7.65-15.14,11.45-18.45,1.73-1.5,3.98-2.27,6.26-2.07.61.05,1.27.15,1.98.32h0c.91.22,1.84.33,2.77.36.04,0,.08,0,.12,0,.15,0,.29,0,.44,0,1.27,0,2.53-.17,3.76-.54h0c.83-.18,1.58-.29,2.27-.33,2.28-.15,4.52.65,6.22,2.19l.23.2,2.66,2.66c2.98,3.29,6.33,8.14,7.74,14.33.05.21.09.42.12.63.25,1.82,1.09,3.57,2.53,4.94,3.22,3.07,8.35,3.07,11.57,0,3.42-3.26,3.47-8.68.14-12ZM52.47,61.56c-5.03,0-9.1-4.07-9.1-9.1s4.07-9.1,9.1-9.1,9.1,4.07,9.1,9.1-4.07,9.1-9.1,9.1Z"/>
  </g>
  <g>
    <path class="cls-3" d="M117.88,13.24h41.91c4.1,0,7.84,1,11.23,2.99,3.38,2,6.07,4.67,8.07,8.01,2,3.35,2.99,7.07,2.99,11.17v34.7c0,4.03-1,7.71-2.99,11.03-2,3.33-4.68,5.98-8.07,7.96-3.38,1.98-7.12,2.97-11.23,2.97h-41.91V13.24ZM159.79,80.37c2.96,0,5.47-1.02,7.54-3.05,2.07-2.03,3.1-4.49,3.1-7.37v-34.54c0-2.92-1.03-5.4-3.1-7.46-2.07-2.05-4.58-3.08-7.54-3.08h-30.21v55.49h30.21Z"/>
    <path class="cls-3" d="M219.16,13.24h14.58l28.22,78.83h-12.47l-4.79-13.22-3.8-10.5h-22.01l4.21-11.64h13.58l-2.44-6.73-7.76-21.43-23.06,63.53h-12.47l28.22-78.83Z"/>
    <path class="cls-3" d="M271.94,13.24h11.7v78.83h-11.7V13.24Z"/>
    <path class="cls-3" d="M298.05,32.31c0-3.51.88-6.71,2.63-9.59,1.75-2.88,4.12-5.18,7.1-6.9,2.97-1.72,6.25-2.58,9.84-2.58h40.8v11.64h-40.8c-2.14,0-3.99.76-5.54,2.27s-2.33,3.34-2.33,5.49v5.43c0,1.96.78,3.64,2.33,5.04,1.55,1.41,3.4,2.11,5.54,2.11h25.11c3.62,0,6.91.86,9.87,2.58,2.96,1.72,5.31,4.03,7.07,6.93,1.75,2.9,2.63,6.11,2.63,9.62v8.59c0,3.51-.88,6.72-2.63,9.62-1.76,2.9-4.11,5.21-7.07,6.93-2.96,1.72-6.25,2.58-9.87,2.58h-44.63v-11.7h44.63c2.18,0,4.04-.73,5.57-2.19,1.53-1.46,2.3-3.22,2.3-5.29v-8.48c0-2.07-.77-3.84-2.3-5.32-1.53-1.48-3.39-2.22-5.57-2.22h-25.11c-3.59,0-6.87-.84-9.84-2.52-2.98-1.68-5.34-3.94-7.1-6.79-1.76-2.85-2.63-5.99-2.63-9.42v-5.82Z"/>
    <path class="cls-3" d="M376.72,13.24h11.7v78.83h-11.7V13.24Z"/>
  </g>
  <g>
    <path class="cls-3" d="M397.75,14.65h-2.82v-1.67h7.4v1.67h-2.82v8.58h-1.76v-8.58Z"/>
    <path class="cls-3" d="M405.24,12.98l3.34,5.15,3.34-5.15h1.62v10.24h-1.76v-6.88l-3.2,4.87-3.2-4.87v6.88h-1.76v-10.24h1.62Z"/>
  </g>
</svg>